<svg xmlns="http://www.w3.org/2000/svg" viewBox="0 0 509.82 125.9"><g id="Layer_2" data-name="Layer 2"><g id="Layer_1-2" data-name="Layer 1"><path d="M339.75,45.23h-4.06c-4.58-6.1-12-10.51-24.74-10.51-23.2,0-37.27,19.31-37.27,45.24,0,25.74,13.89,45.4,37.27,45.4,12.88,0,20.67-4.58,25.41-10.51h4.07v8.3h18.46V0H339.75Zm-23.37,63.86c-15.76,0-23.55-12.37-23.55-29.13,0-16.61,7.79-29,23.55-29,16.76,0,23.88,13.89,23.88,29C340.26,95.37,333.14,109.09,316.38,109.09Z"/><path d="M508.82,36.93h-6.28c-13.39,0-20.51,5.25-24.06,10h-4.07v-10H456v86.22h19.14V82.83c0-18.12,9.31-28.11,26.94-28.11h6.79a1,1,0,0,0,1-1V37.92A1,1,0,0,0,508.82,36.93Z"/><path d="M408.69,34.72c-26.43,0-42.52,17.79-42.52,44.73s15.93,45.91,43,45.91c22.36,0,35.24-11.19,38.46-27.27H428.17c-2.54,6.93-8.47,11-18.8,11-24.71,0-24-24.13-24-24.13h63.5S454.94,34.72,408.69,34.72Zm-23.12,36S386.72,50,407.64,50c21.47,0,22.07,20.77,22.07,20.77Z"/><path d="M235.7,34.72c-11.52,0-20,3.89-24.91,10.5h-2.48A16.13,16.13,0,0,0,203,37.76,15.86,15.86,0,0,0,200.21,36a27.22,27.22,0,0,0-4.75-1.48A5,5,0,0,1,192,31.3c-2-6.92,7.49-16.43,12.66-22.39L203,7.35c-4.85,4.34-17.35,18.85-26.9,18.36-3.86-.24-5.66-1.72-7.48-5l-2,1.47a9.77,9.77,0,0,1-1.55,13.1c-5,4.73-10.41,6.59-16.6,7.58l.45,2.28c12.08-2.16,18.19,1.11,7.79,15.35l1.87,1.36s13.18-18.67,29.68-21.92A13.24,13.24,0,0,1,199,42.74c3.29,2.68,4,7,3.45,11.19-1.32,9-6.41,17.08-11.92,24.24A106.5,106.5,0,0,1,146.09,111c-8.2,3-17,5.2-25.65,3.7-14.68-2.76-13.61-16.92-9.07-28,5.39-13.09,14.65-24.15,24.79-33.94l-1.87-2.42c-12.8,8-24.08,19.12-31,32.73a58.26,58.26,0,0,0-2.38,5.55L108.25,37H90.12l-8.64,64.21H77.42L65.05,62.88H43.71L31.17,101H27.1L18.29,37H0l12,86.23H38.28l13.89-42h4.07l13.72,42H96.05l2.62-18.52c.1.88.24,1.77.43,2.65,3.83,16.63,21,20.5,35.73,17.79,20.64-3.89,39.22-16.22,53.43-31.7v29.74h19.15V77.07c0-13.55,8.64-25.24,22.36-25.24,12.71,0,19.14,7.11,19.14,21.18v50.14h19.15V69.28C268.06,47.76,257.22,34.72,235.7,34.72Z"/></g></g></svg>